<svg width="120" height="29" viewBox="0 0 120 29" fill="none" xmlns="http://www.w3.org/2000/svg">
<path d="M8.8 25.28C10.48 25.28 11.7733 24.92 12.68 24.2C13.5867 23.4533 14.04 22.3733 14.04 20.96C14.04 19.7867 13.72 18.8 13.08 18C12.4667 17.2 11.4533 16.5867 10.04 16.16L6.8 15.2C4.77333 14.5867 3.28 13.6667 2.32 12.44C1.36 11.1867 0.88 9.65333 0.88 7.84C0.88 6.45333 1.14667 5.2 1.68 4.08C2.24 2.96 3.12 2.06667 4.32 1.4C5.54667 0.733332 7.14667 0.399998 9.12 0.399998C10.32 0.399998 11.56 0.546665 12.84 0.839999C14.12 1.10667 15.4133 1.54667 16.72 2.16L15.6 5.16C14.32 4.6 13.16 4.2 12.12 3.96C11.1067 3.69333 10.1333 3.56 9.2 3.56C7.68 3.56 6.49333 3.88 5.64 4.52C4.81333 5.13333 4.4 6.16 4.4 7.6C4.4 8.64 4.68 9.52 5.24 10.24C5.8 10.9333 6.8 11.5067 8.24 11.96L11.48 12.92C15.5333 14.12 17.56 16.7067 17.56 20.68C17.56 22.9733 16.8667 24.84 15.48 26.28C14.0933 27.6933 11.8667 28.4 8.8 28.4C7.54667 28.4 6.21333 28.2533 4.8 27.96C3.41333 27.64 1.97333 27.1467 0.48 26.48L1.56 23.52C2.97333 24.16 4.24 24.6133 5.36 24.88C6.50667 25.1467 7.65333 25.28 8.8 25.28ZM25.8344 17.4C25.8344 19.9067 26.3277 21.84 27.3144 23.2C28.3277 24.5333 29.8744 25.2 31.9544 25.2C32.861 25.2 33.7544 25.0933 34.6344 24.88C35.5144 24.6667 36.5677 24.2933 37.7944 23.76L38.9544 26.72C37.6477 27.3067 36.4077 27.7333 35.2344 28C34.061 28.2667 32.9277 28.4 31.8344 28.4C28.6877 28.4 26.301 27.4133 24.6744 25.44C23.0477 23.4667 22.2344 20.7867 22.2344 17.4V11.4C22.2344 8.01333 23.0477 5.33333 24.6744 3.36C26.301 1.38666 28.6877 0.399998 31.8344 0.399998C32.9277 0.399998 34.061 0.533332 35.2344 0.8C36.4344 1.06667 37.6477 1.49333 38.8744 2.08L37.7544 5.08C35.5944 4.12 33.661 3.64 31.9544 3.64C29.8744 3.64 28.3277 4.30667 27.3144 5.64C26.3277 6.97333 25.8344 8.89333 25.8344 11.4V17.4ZM48.1263 17.36V28H44.6463V0.8H53.1663C55.7263 0.8 57.6996 1.48 59.0863 2.84C60.4996 4.17333 61.2063 5.96 61.2063 8.2V9.92C61.2063 11.52 60.8329 12.9067 60.0863 14.08C59.3663 15.2533 58.3263 16.12 56.9663 16.68C58.1129 18.52 59.1796 20.3867 60.1663 22.28C61.1529 24.1733 62.0596 26.08 62.8863 28H58.8863C57.3663 24.3733 55.5929 20.8267 53.5663 17.36H48.1263ZM53.1663 4H48.1263V14.16H53.1663C54.5263 14.16 55.6063 13.7867 56.4063 13.04C57.2063 12.2667 57.6063 11.2267 57.6063 9.92V8.2C57.6063 6.86667 57.2063 5.84 56.4063 5.12C55.6063 4.37333 54.5263 4 53.1663 4ZM72.1497 28H68.6697V0.8H72.1497V28ZM80.6619 28V0.8H88.6619C91.2752 0.8 93.1952 1.44 94.4219 2.72C95.6752 3.97333 96.3019 5.66667 96.3019 7.8V8.68C96.3019 9.85333 96.0352 10.8933 95.5019 11.8C94.9685 12.7067 94.1952 13.4267 93.1819 13.96C94.5952 14.4133 95.6619 15.16 96.3819 16.2C97.1285 17.2133 97.5019 18.44 97.5019 19.88V20.76C97.5019 22.9467 96.8619 24.7067 95.5819 26.04C94.3285 27.3467 92.3552 28 89.6619 28H80.6619ZM88.6619 4H84.1419V12.6H88.6619C89.9952 12.6 90.9952 12.2667 91.6619 11.6C92.3552 10.9067 92.7019 9.96 92.7019 8.76V7.8C92.7019 6.62667 92.3552 5.70667 91.6619 5.04C90.9952 4.34667 89.9952 4 88.6619 4ZM89.6619 15.8H84.1419V24.84H89.6619C91.0752 24.84 92.1285 24.48 92.8219 23.76C93.5419 23.04 93.9019 22.04 93.9019 20.76V19.8C93.9019 18.5733 93.5419 17.6 92.8219 16.88C92.1285 16.16 91.0752 15.8 89.6619 15.8ZM119.26 24.76V28H104.06V0.8H118.86V4.08H107.54V12.6H117.66V15.88H107.54V24.76H119.26Z" fill="black"/>
</svg>
